<?xml version="1.0" standalone="no"?>
<!DOCTYPE svg PUBLIC "-//W3C//DTD SVG 20010904//EN"
 "http://www.w3.org/TR/2001/REC-SVG-20010904/DTD/svg10.dtd">
<svg version="1.0" xmlns="http://www.w3.org/2000/svg"
 width="50.000000pt" height="56.000000pt" viewBox="0 0 50.000000 56.000000"
 preserveAspectRatio="xMidYMid meet">

<g transform="translate(0.000000,56.000000) scale(0.100000,-0.100000)"
fill="#000000" stroke="none">
<path d="M135 330 c-4 -6 8 -10 30 -10 22 0 34 4 30 10 -3 6 -17 10 -30 10
-13 0 -27 -4 -30 -10z"/>
<path d="M298 333 c-30 -8 -20 -23 15 -24 22 -1 16 -4 -21 -9 -30 -5 -68 -4
-85 1 -42 12 -57 11 -57 -2 0 -5 5 -7 10 -4 6 3 10 1 10 -6 0 -7 10 -9 26 -6
18 3 24 1 20 -9 -3 -8 -1 -14 4 -14 6 0 10 5 10 10 0 6 7 10 15 10 8 0 15 -7
15 -15 0 -23 20 -18 29 7 5 13 10 17 14 11 5 -8 18 -8 42 -2 19 6 40 7 45 4 6
-3 10 -1 10 4 0 6 -6 11 -14 11 -8 0 -18 9 -21 20 -6 20 -27 24 -67 13z"/>
<path d="M103 303 c9 -2 23 -2 30 0 6 3 -1 5 -18 5 -16 0 -22 -2 -12 -5z"/>
<path d="M260 181 c0 -5 9 -7 20 -4 11 3 20 7 20 9 0 2 -9 4 -20 4 -11 0 -20
-4 -20 -9z"/>
<path d="M270 150 c12 -7 11 -10 -5 -17 -25 -10 -29 -29 -6 -29 10 0 25 13 34
28 16 28 16 28 -11 28 -21 0 -24 -3 -12 -10z"/>
<path d="M123 105 c8 -43 20 -81 30 -92 9 -13 77 -19 77 -7 0 3 -25 31 -55 62
-38 39 -54 51 -52 37z"/>
<path d="M338 108 c-8 -7 -20 -26 -26 -43 -5 -16 -13 -37 -16 -46 -6 -13 2
-16 41 -17 33 -1 43 1 34 7 -10 6 -15 26 -14 60 0 28 0 51 -1 51 -1 0 -9 -6
-18 -12z"/>
<path d="M10 36 c0 -26 4 -36 15 -36 33 0 30 57 -3 68 -8 2 -12 -9 -12 -32z"/>
<path d="M466 15 c-3 -9 0 -15 9 -15 16 0 20 16 6 24 -5 3 -11 -1 -15 -9z"/>
</g>
</svg>
